<svg xmlns="http://www.w3.org/2000/svg" xmlns:xlink="http://www.w3.org/1999/xlink" viewBox="0 0 32 32"><defs><style>.cls-1{clip-path:url(#clip-path);}</style><clipPath id="clip-path"><path d="M-72,8a2,2,0,0,1,2,2V22a2,2,0,0,1-2,2h-5V8ZM-84,8h5V24h-5a2,2,0,0,1-2-2V10A2,2,0,0,1-84,8Zm-1-2a3,3,0,0,0-3,3V23a3,3,0,0,0,3,3h14a3,3,0,0,0,3-3V9a3,3,0,0,0-3-3Zm-1-2h16a4,4,0,0,1,4,4V24a4,4,0,0,1-4,4H-86a4,4,0,0,1-4-4V8A4,4,0,0,1-86,4Z"/></clipPath></defs><title>devices_outdoor_motion_sensor copy</title><g id="Icons"><path d="M-72,8a2,2,0,0,1,2,2V22a2,2,0,0,1-2,2h-5V8ZM-84,8h5V24h-5a2,2,0,0,1-2-2V10A2,2,0,0,1-84,8Zm-1-2a3,3,0,0,0-3,3V23a3,3,0,0,0,3,3h14a3,3,0,0,0,3-3V9a3,3,0,0,0-3-3Zm-1-2h16a4,4,0,0,1,4,4V24a4,4,0,0,1-4,4H-86a4,4,0,0,1-4-4V8A4,4,0,0,1-86,4Z"/><g class="cls-1"><rect x="-1004" y="-182" width="1440" height="350"/></g><path d="M24,4H8A4,4,0,0,0,4,8V24a4,4,0,0,0,4,4H24a4,4,0,0,0,4-4V8A4,4,0,0,0,24,4ZM16,25a9,9,0,1,1,9-9A9,9,0,0,1,16,25Z"/><path d="M16,8a8.06,8.06,0,0,0-8,6.86.51.51,0,0,0,.71.53A18.67,18.67,0,0,1,16.05,14a18.19,18.19,0,0,1,7.24,1.38.5.5,0,0,0,.71-.52A8.08,8.08,0,0,0,16,8Z"/></g></svg>