<?xml version="1.0" encoding="UTF-8"?>
<svg width="32px" height="32px" viewBox="0 0 32 32" version="1.1" xmlns="http://www.w3.org/2000/svg" xmlns:xlink="http://www.w3.org/1999/xlink">
    <!-- Generator: Sketch 51.3 (57544) - http://www.bohemiancoding.com/sketch -->
    <title>otherMusic</title>
    <desc>Created with Sketch.</desc>
    <defs></defs>
    <g stroke="none" stroke-width="1" fill="none" fill-rule="evenodd">
        <g fill="#101010">
            <path d="M16,6 C21.514,6 26,10.486 26,16 C26,17.422 25.7,18.774 25.163,20 L24,20 L24,19 C24,18.448 23.553,18 23,18 L20,18 C18.896,18 18,18.896 18,20 L18,26 C18,27.104 18.896,28 20,28 L23,28 C23.553,28 24,27.553 24,27 L24,26 L26,26 C26.553,26 27,25.553 27,25 L27,21 C27,20.944 26.977,20.896 26.968,20.843 C27.624,19.36 28,17.726 28,16 C28,9.373 22.628,4 16,4 C9.373,4 4,9.373 4,16 C4,17.726 4.376,19.36 5.031,20.843 C5.023,20.896 5,20.944 5,21 L5,25 C5,25.553 5.447,26 6,26 L8,26 L8,27 C8,27.553 8.447,28 9,28 L12,28 C13.104,28 14,27.104 14,26 L14,20 C14,18.896 13.104,18 12,18 L9,18 C8.447,18 8,18.447 8,19 L8,20 L6.837,20 C6.3,18.774 6,17.422 6,16 C6,10.486 10.486,6 16,6"></path>
        </g>
    </g>
</svg>