<?xml version="1.0" encoding="UTF-8"?>
<svg width="32px" height="32px" viewBox="0 0 32 32" version="1.1" xmlns="http://www.w3.org/2000/svg" xmlns:xlink="http://www.w3.org/1999/xlink">
    <!-- Generator: Sketch 51.3 (57544) - http://www.bohemiancoding.com/sketch -->
    <title>uicontrolsScenes</title>
    <desc>Created with Sketch.</desc>
    <defs></defs>
    <g stroke="none" stroke-width="1" fill="none" fill-rule="evenodd">
        <g fill="#101010">
            <path d="M21.6748,20.3261 C20.8968,19.5431 20.8998,18.2771 21.6828,17.4981 C22.4658,16.7201 23.7328,16.7221 24.5118,17.5061 C25.2898,18.2891 25.2858,19.5551 24.5028,20.3351 C23.7198,21.1131 22.4538,21.1091 21.6748,20.3261 M23.0418,11.0591 C24.1468,11.0631 25.0388,11.9611 25.0358,13.0651 C25.0328,14.1701 24.1348,15.0631 23.0298,15.0591 C21.9258,15.0561 21.0328,14.1591 21.0358,13.0551 C21.0388,11.9501 21.9378,11.0561 23.0418,11.0591 M18.9288,25.0311 C17.8238,25.0271 16.9318,24.1301 16.9348,23.0251 C16.9378,21.9211 17.8358,21.0271 18.9408,21.0311 C20.0448,21.0341 20.9378,21.9311 20.9348,23.0361 C20.9318,24.1401 20.0328,25.0341 18.9288,25.0311 M17.5058,7.5471 C18.2888,6.7681 19.5558,6.7711 20.3348,7.5551 C21.1128,8.3391 21.1108,9.6041 20.3258,10.3841 C19.5428,11.1621 18.2778,11.1591 17.4978,10.3761 C16.7198,9.5931 16.7228,8.3261 17.5058,7.5471 M13.0598,10.9641 C11.9548,10.9611 11.0628,10.0621 11.0658,8.9581 C11.0688,7.8531 11.9668,6.9611 13.0708,6.9641 C14.1758,6.9671 15.0688,7.8651 15.0658,8.9701 C15.0628,10.0741 14.1638,10.9671 13.0598,10.9641 M15.9888,4.0001 C9.3668,4.0061 3.9998,9.3761 3.9998,16.0001 L4.0028,17.2571 C4.0058,18.9081 5.8928,19.8471 7.2118,18.8531 L8.0888,18.1931 C9.2968,17.2821 11.0458,17.9921 11.2718,19.4871 C12.0158,24.4141 12.9388,28.0001 17.9998,28.0001 C22.9998,28.0001 27.9998,23.0001 27.9998,16.0001 C27.9998,10.0001 23.8548,3.9931 15.9888,4.0001"></path>
        </g>
    </g>
</svg>