<?xml version="1.0" encoding="UTF-8" standalone="no"?>
<svg
   xmlns:dc="http://purl.org/dc/elements/1.1/"
   xmlns:cc="http://creativecommons.org/ns#"
   xmlns:rdf="http://www.w3.org/1999/02/22-rdf-syntax-ns#"
   xmlns:svg="http://www.w3.org/2000/svg"
   xmlns="http://www.w3.org/2000/svg"
   xmlns:sodipodi="http://sodipodi.sourceforge.net/DTD/sodipodi-0.dtd"
   xmlns:inkscape="http://www.inkscape.org/namespaces/inkscape"
   width="32px"
   height="32px"
   viewBox="0 0 32 32"
   version="1.1"
   id="svg14"
   sodipodi:docname="devicesBridgesV2.svg"
   inkscape:version="1.0.1 (3bc2e813f5, 2020-09-07)">
  <metadata
     id="metadata18">
    <rdf:RDF>
      <cc:Work
         rdf:about="">
        <dc:format>image/svg+xml</dc:format>
        <dc:type
           rdf:resource="http://purl.org/dc/dcmitype/StillImage" />
      </cc:Work>
    </rdf:RDF>
  </metadata>
  <sodipodi:namedview
     pagecolor="#ffffff"
     bordercolor="#666666"
     borderopacity="1"
     objecttolerance="10"
     gridtolerance="10"
     guidetolerance="10"
     inkscape:pageopacity="0"
     inkscape:pageshadow="2"
     inkscape:window-width="3215"
     inkscape:window-height="1826"
     id="namedview16"
     showgrid="false"
     inkscape:zoom="35.090174"
     inkscape:cx="14.677074"
     inkscape:cy="11.436969"
     inkscape:window-x="26"
     inkscape:window-y="23"
     inkscape:window-maximized="0"
     inkscape:current-layer="svg14" />
  <!-- Generator: Sketch 51.3 (57544) - http://www.bohemiancoding.com/sketch -->
  <title
     id="title2">devicesBridgesV2</title>
  <desc
     id="desc4">Created with Sketch.</desc>
  <defs
     id="defs6" />
  <g
     stroke="none"
     stroke-width="1"
     fill="none"
     fill-rule="evenodd"
     id="g12">
    <g
       fill="#101010"
       id="g10">
      <path
         d="M22,8 C21.447,8 21,7.553 21,7 C21,6.447 21.447,6 22,6 C22.553,6 23,6.447 23,7 C23,7.553 22.553,8 22,8 Z M16,12 C18.209,12 20,13.791 20,16 C20,18.209 18.209,20 16,20 C13.791,20 12,18.209 12,16 C12,13.791 13.791,12 16,12 Z M16,22 C12.691,22 10,19.309 10,16 C10,12.691 12.691,10 16,10 C19.309,10 22,12.691 22,16 C22,19.309 19.309,22 16,22 M9,7 C9,6.447 9.447,6 10,6 C10.553,6 11,6.447 11,7 C11,7.553 10.553,8 10,8 C9.447,8 9,7.553 9,7 M16,6 C16.553,6 17,6.447 17,7 C17,7.553 16.553,8 16,8 C15.447,8 15,7.553 15,7 C15,6.447 15.447,6 16,6 M24,4 L8,4 C5.8,4 4,5.8 4,8 L4,24 C4,26.2 5.8,28 8,28 L24,28 C26.2,28 28,26.2 28,24 L28,8 C28,5.8 26.2,4 24,4"
         id="path8" />
    </g>
  </g>
  <path
     style="opacity:1;fill:#ffffff;stroke-width:0.085494"
     d="m 15.489267,19.955164 c -0.10188,-0.0132 -0.307066,-0.05498 -0.455968,-0.09286 -0.754848,-0.191991 -1.362554,-0.548948 -1.91263,-1.123448 -0.53346,-0.557148 -0.861666,-1.180876 -1.027745,-1.953145 -0.09017,-0.419284 -0.08944,-1.16207 0.0016,-1.585774 0.170223,-0.792606 0.520102,-1.433177 1.098983,-2.012058 0.785754,-0.785754 1.70627,-1.164795 2.823015,-1.162434 0.685123,0.0014 1.183407,0.121168 1.790895,0.430287 0.751008,0.382149 1.353173,0.983724 1.73383,1.732134 0.314113,0.617575 0.430763,1.101887 0.432227,1.794531 0.0024,1.116499 -0.376238,2.0361 -1.162434,2.823499 -0.883546,0.884899 -2.103712,1.307056 -3.321731,1.149264 z"
     id="path859" />
  <path
     style="opacity:1;fill:#ffffff;stroke-width:0.085494"
     d="M 7.6665646,27.974608 C 6.0709688,27.82638 4.6848185,26.719413 4.2095609,25.213875 4.0018181,24.55578 4.0188198,25.377355 4.0188198,15.99665 c 0,-8.0062899 0.00254,-8.4337962 0.051473,-8.6776425 C 4.2385937,6.4803869 4.5798837,5.821724 5.1494624,5.2362951 5.6178482,4.7548752 6.1452799,4.422408 6.7696799,4.2149892 7.3743842,4.0141131 6.703359,4.0277293 16.004334,4.0276023 c 9.301882,-1.27e-4 8.617596,-0.01391 9.221315,0.1857349 1.414995,0.467927 2.451732,1.6732697 2.708009,3.1484173 0.04952,0.2850225 0.05198,0.6963345 0.05198,8.6633935 0,7.958022 -0.0025,8.377219 -0.05166,8.632999 -0.144447,0.751761 -0.468739,1.42856 -0.935079,1.951518 -0.613448,0.687925 -1.32911,1.104525 -2.246778,1.307891 l -0.271743,0.06022 -8.349916,0.0037 c -4.592453,0.002 -8.4012118,-0.0011 -8.4639074,-0.0069 z m 9.2757034,-6.035661 c 1.28635,-0.217107 2.402366,-0.78944 3.306166,-1.695521 1.627866,-1.631972 2.178311,-3.995989 1.438347,-6.177319 -0.598385,-1.763971 -1.990035,-3.155621 -3.754006,-3.754006 -2.472347,-0.8386847 -5.175561,0.0028 -6.756335,2.103139 -1.3364821,1.775769 -1.5613875,4.202024 -0.576339,6.217476 0.907307,1.85639 2.697419,3.115134 4.760925,3.347716 0.32852,0.03703 1.261007,0.01256 1.581242,-0.04149 z M 10.428055,7.9075064 C 11.047935,7.6131092 11.20286,6.8391618 10.746704,6.3156496 10.68469,6.2444777 10.56468,6.1575936 10.451481,6.1019146 10.276097,6.015649 10.238926,6.0081244 9.9895844,6.0084134 9.7469253,6.0086955 9.7010749,6.0174781 9.5534039,6.0919719 8.871048,6.4361924 8.797897,7.3956104 9.4213228,7.8242914 9.7273207,8.0347018 10.096057,8.065181 10.428055,7.9075064 Z m 6.019914,-0.00414 c 0.198593,-0.097767 0.370742,-0.2731788 0.470659,-0.4795793 0.09573,-0.1977511 0.107289,-0.5626034 0.02476,-0.7815105 -0.0811,-0.2151195 -0.297204,-0.4508979 -0.508269,-0.5545457 -0.142968,-0.070207 -0.194193,-0.07963 -0.432888,-0.07963 -0.238395,0 -0.290008,0.00947 -0.432134,0.079262 -0.609516,0.2993208 -0.769765,1.0896736 -0.321533,1.5858125 0.306321,0.3390604 0.789784,0.4318474 1.199405,0.230191 z m 5.810712,0.070159 c 0.307757,-0.079153 0.562137,-0.3061153 0.688233,-0.6140517 0.08187,-0.1999334 0.07029,-0.5665241 -0.02434,-0.7705841 C 22.822308,6.37268 22.678922,6.2211443 22.46468,6.1049682 c -0.169274,-0.091791 -0.19357,-0.096868 -0.463615,-0.096868 -0.270046,0 -0.294342,0.00508 -0.463615,0.096868 -0.09825,0.053277 -0.224758,0.1479189 -0.281129,0.210315 -0.217668,0.2409331 -0.314148,0.616886 -0.238853,0.9307471 0.07865,0.3278439 0.383509,0.6382217 0.712866,0.7257664 0.204964,0.054481 0.321758,0.054863 0.52835,0.00173 z"
     id="path861" />
</svg>
