<?xml version="1.0" encoding="UTF-8" standalone="no"?>
<svg xmlns:svg="http://www.w3.org/2000/svg" xmlns="http://www.w3.org/2000/svg" width="256" height="32" viewBox="0 0 64 8" version="1.1"><title>Temperature Bar - 32 Steps</title>
<desc>Copyright (c) 2021, 2nv2u &lt;info@2nv2u.com&gt; - This work is distributed under GPLv3</desc>
<mask id="slider"><rect x="0.75" y="0.75" width="62.5" height="6.5" rx="3.5" ry="8" fill="rgb(255,255,255)" /></mask><g><rect x="0" y="0" width="64" height="8" rx="3.5" ry="8" fill="rgba(0,0,0,0.01)" />
<rect x="0.2" y="0.2" width="63.6" height="7.6" rx="3.5" ry="8" fill="rgba(0,0,0,0.01)" />
<rect x="0.45" y="0.45" width="63.1" height="7.1" rx="3.5" ry="8" fill="rgba(0,0,0,0.1)" />
</g><g><rect x="0.75" y="0.75" height="6.5" width="2.9296875" fill="rgb(255,147,44)" mask="url(#slider)" />
<rect x="2.703125" y="0.75" height="6.5" width="2.9296875" fill="rgb(255,153.75,57.1875)" mask="url(#slider)" />
<rect x="4.65625" y="0.75" height="6.5" width="2.9296875" fill="rgb(255,160.5,70.375)" mask="url(#slider)" />
<rect x="6.609375" y="0.75" height="6.5" width="2.9296875" fill="rgb(255,167.25,83.5625)" mask="url(#slider)" />
<rect x="8.5625" y="0.75" height="6.5" width="2.9296875" fill="rgb(255,174.0,96.75)" mask="url(#slider)" />
<rect x="10.515625" y="0.75" height="6.5" width="2.9296875" fill="rgb(255,180.75,109.9375)" mask="url(#slider)" />
<rect x="12.46875" y="0.75" height="6.5" width="2.9296875" fill="rgb(255,187.5,123.125)" mask="url(#slider)" />
<rect x="14.421875" y="0.75" height="6.5" width="2.9296875" fill="rgb(255,194.25,136.3125)" mask="url(#slider)" />
<rect x="16.375" y="0.75" height="6.5" width="2.9296875" fill="rgb(255,201.0,149.5)" mask="url(#slider)" />
<rect x="18.328125" y="0.75" height="6.5" width="2.9296875" fill="rgb(255,207.75,162.6875)" mask="url(#slider)" />
<rect x="20.28125" y="0.75" height="6.5" width="2.9296875" fill="rgb(255,214.5,175.875)" mask="url(#slider)" />
<rect x="22.234375" y="0.75" height="6.5" width="2.9296875" fill="rgb(255,221.25,189.0625)" mask="url(#slider)" />
<rect x="24.1875" y="0.75" height="6.5" width="2.9296875" fill="rgb(255,228.0,202.25)" mask="url(#slider)" />
<rect x="26.140625" y="0.75" height="6.5" width="2.9296875" fill="rgb(255,234.75,215.4375)" mask="url(#slider)" />
<rect x="28.09375" y="0.75" height="6.5" width="2.9296875" fill="rgb(255,241.5,228.625)" mask="url(#slider)" />
<rect x="30.046875" y="0.75" height="6.5" width="2.9296875" fill="rgb(255,248.25,241.8125)" mask="url(#slider)" />
<rect x="32.0" y="0.75" height="6.5" width="2.9296875" fill="rgb(255,255.0,255.0)" mask="url(#slider)" />
<rect x="33.953125" y="0.75" height="6.5" width="2.9296875" fill="rgb(252.0625,252.9375,255)" mask="url(#slider)" />
<rect x="35.90625" y="0.75" height="6.5" width="2.9296875" fill="rgb(249.125,250.875,255)" mask="url(#slider)" />
<rect x="37.859375" y="0.75" height="6.5" width="2.9296875" fill="rgb(246.1875,248.8125,255)" mask="url(#slider)" />
<rect x="39.8125" y="0.75" height="6.5" width="2.9296875" fill="rgb(243.25,246.75,255)" mask="url(#slider)" />
<rect x="41.765625" y="0.75" height="6.5" width="2.9296875" fill="rgb(240.3125,244.6875,255)" mask="url(#slider)" />
<rect x="43.71875" y="0.75" height="6.5" width="2.9296875" fill="rgb(237.375,242.625,255)" mask="url(#slider)" />
<rect x="45.671875" y="0.75" height="6.5" width="2.9296875" fill="rgb(234.4375,240.5625,255)" mask="url(#slider)" />
<rect x="47.625" y="0.75" height="6.5" width="2.9296875" fill="rgb(231.5,238.5,255)" mask="url(#slider)" />
<rect x="49.578125" y="0.75" height="6.5" width="2.9296875" fill="rgb(228.5625,236.4375,255)" mask="url(#slider)" />
<rect x="51.53125" y="0.75" height="6.5" width="2.9296875" fill="rgb(225.625,234.375,255)" mask="url(#slider)" />
<rect x="53.484375" y="0.75" height="6.5" width="2.9296875" fill="rgb(222.6875,232.3125,255)" mask="url(#slider)" />
<rect x="55.4375" y="0.75" height="6.5" width="2.9296875" fill="rgb(219.75,230.25,255)" mask="url(#slider)" />
<rect x="57.390625" y="0.75" height="6.5" width="2.9296875" fill="rgb(216.8125,228.1875,255)" mask="url(#slider)" />
<rect x="59.34375" y="0.75" height="6.5" width="2.9296875" fill="rgb(213.875,226.125,255)" mask="url(#slider)" />
<rect x="61.296875" y="0.75" height="6.5" width="2.9296875" fill="rgb(210.9375,224.0625,255)" mask="url(#slider)" />
</g></svg>