<?xml version="1.0" encoding="UTF-8" standalone="no"?>
<svg
   xmlns:dc="http://purl.org/dc/elements/1.1/"
   xmlns:cc="http://creativecommons.org/ns#"
   xmlns:rdf="http://www.w3.org/1999/02/22-rdf-syntax-ns#"
   xmlns:svg="http://www.w3.org/2000/svg"
   xmlns="http://www.w3.org/2000/svg"
   xmlns:sodipodi="http://sodipodi.sourceforge.net/DTD/sodipodi-0.dtd"
   xmlns:inkscape="http://www.inkscape.org/namespaces/inkscape"
   width="32px"
   height="32px"
   viewBox="0 0 32 32"
   version="1.1"
   id="svg14"
   sodipodi:docname="battery.svg"
   inkscape:version="1.0.1 (3bc2e813f5, 2020-09-07)">
  <metadata
     id="metadata18">
    <rdf:RDF>
      <cc:Work
         rdf:about="">
        <dc:format>image/svg+xml</dc:format>
        <dc:type
           rdf:resource="http://purl.org/dc/dcmitype/StillImage" />
        <dc:title>archetypesBollard</dc:title>
      </cc:Work>
    </rdf:RDF>
  </metadata>
  <sodipodi:namedview
     pagecolor="#ffffff"
     bordercolor="#666666"
     borderopacity="1"
     objecttolerance="10"
     gridtolerance="10"
     guidetolerance="10"
     inkscape:pageopacity="0"
     inkscape:pageshadow="2"
     inkscape:window-width="1920"
     inkscape:window-height="1016"
     id="namedview16"
     showgrid="false"
     inkscape:zoom="24.8125"
     inkscape:cx="4.559194"
     inkscape:cy="16.102015"
     inkscape:window-x="0"
     inkscape:window-y="0"
     inkscape:window-maximized="1"
     inkscape:current-layer="svg14"
     inkscape:document-rotation="0" />
  <!-- Generator: Sketch 51.3 (57544) - http://www.bohemiancoding.com/sketch -->
  <title
     id="title2">archetypesBollard</title>
  <desc
     id="desc4">Created with Sketch.</desc>
  <defs
     id="defs6" />
  <g
     stroke="none"
     stroke-width="1"
     fill="none"
     fill-rule="evenodd"
     id="g12"
     transform="matrix(1,0,0,0.8895368,0,3.150291)">
    <g
       fill="#101010"
       id="g10" />
  </g>
  <path
     id="rect904"
     style="fill:#000000;stroke-width:3"
     d="m 15.769531,3.4181016 a 4.0332966,0.95135391 0 0 0 -3.701172,0.703125 l -0.154297,0.078125 h -0.05273 v 1.3671875 0.039063 c -0.0076,0.2875076 -0.01679,0.6574992 -0.01953,0.6621094 l -0.210938,0.076172 -0.06641,0.023437 -0.04297,0.013672 c -0.03923,0.01313 -0.03685,0.013033 -0.08008,0.027344 -0.0045,0.00148 -0.0078,0.00421 -0.01172,0.00586 -0.0098,0.00331 -0.01763,0.00839 -0.02734,0.011719 l -0.01172,0.00391 c -0.0273,0.00974 -0.04589,0.017692 -0.07227,0.027344 -0.0036,0.00132 -0.0062,0.00259 -0.0098,0.00391 -0.08664,0.031287 -0.175756,0.060992 -0.25586,0.09375 -0.0044,0.00179 -0.0094,0.00406 -0.01367,0.00586 -0.01916,0.00747 -0.03994,0.015903 -0.05859,0.023437 -0.02529,0.010723 -0.04842,0.022321 -0.07227,0.033203 -0.07051,0.029916 -0.132485,0.061099 -0.195312,0.091797 0.01017,-0.00509 0.02818,-0.010346 0.03906,-0.015625 -0.0064,0.00308 -0.0113,0.00669 -0.01758,0.00977 -0.0047,0.00227 -0.0091,0.0036 -0.01367,0.00586 -0.0054,0.00265 -0.01421,0.00516 -0.01953,0.00781 -0.08566,0.042229 -0.165848,0.083366 -0.236328,0.1269531 -0.0035,0.00389 -0.0065,0.00839 -0.01172,0.011719 -0.0023,0.00148 -0.0036,0.00242 -0.0059,0.00391 -0.0031,0.00197 -0.0048,0.00389 -0.0078,0.00586 -0.0021,0.00139 -0.0057,0.00251 -0.0078,0.00391 C 10.1623,7.0435548 10,7.2262346 10,7.4122422 V 25.701305 c 0,0.03863 0.0292,0.0767 0.04102,0.115234 l -0.002,-0.773437 c 0.0015,0.08498 0.0041,0.160863 0.0059,0.226562 1.85e-4,0.0067 -1.89e-4,0.01693 0,0.02344 9.4e-5,0.0033 -9.5e-5,0.0085 0,0.01172 4.53e-4,0.01414 0.0015,0.229868 0.002,0.238282 2.94e-4,0.005 -3.01e-4,0.153744 0,0.15625 1.34e-4,0.0013 -1.35e-4,0.06559 0,0.06641 0.0035,0.02096 0.02444,0.03986 0.03125,0.06055 v 0.002 0.002 c 3.37e-4,0.0011 -3.43e-4,0.0028 0,0.0039 0.0011,0.0033 8.22e-4,0.072 0.002,0.07422 0.0137,0.0241 0.03758,0.04841 0.05664,0.07227 -0.0035,-0.0032 -0.0074,-0.0063 -0.0098,-0.0098 l 0.01953,0.02539 c 0.0022,0.0029 0.0066,0.0051 0.0098,0.0078 l 0.002,0.002 c 0.0025,0.0028 0.0056,0.005 0.0078,0.0078 0.02107,0.02542 0.036,0.05128 0.0625,0.07617 -0.0037,-0.0034 -0.0081,-0.0063 -0.01172,-0.0098 0.0125,0.01217 0.01944,0.02507 0.0332,0.03711 l 0.002,0.002 c 0.0073,0.0063 0.01973,0.0113 0.02734,0.01758 l 0.002,0.002 c 0.0017,0.0014 0.0042,0.0025 0.0059,0.0039 0.0015,0.0012 0.0024,0.0027 0.0039,0.0039 l 0.002,0.002 c 0.06115,0.04888 0.13102,0.09709 0.21289,0.144532 -0.05852,-0.03316 -0.100469,-0.06913 -0.148437,-0.103516 0.05474,0.03914 0.105479,0.07964 0.173828,0.117187 0.0018,0.001 0.004,0.0029 0.0059,0.0039 0.01326,0.0072 0.02922,0.01432 0.04297,0.02148 -0.0091,-0.0049 -0.01851,-0.01075 -0.02734,-0.01563 0.01622,0.0087 0.03774,0.01676 0.05469,0.02539 0.01645,0.0084 0.0356,0.0171 0.05273,0.02539 -0.02499,-0.01208 -0.05653,-0.02289 -0.08008,-0.03516 0.241403,0.129456 0.538803,0.253425 0.939453,0.365235 0.707766,0.193293 1.578277,0.319943 2.50586,0.394531 -0.226106,-0.02311 -0.425796,-0.05385 -0.63086,-0.08203 0.240221,0.03089 0.468759,0.06545 0.728516,0.08984 -0.03275,-0.0025 -0.06506,-0.0052 -0.09766,-0.0078 0.08119,0.0083 0.143237,0.02154 0.226562,0.0293 0.0065,6.08e-4 0.034,-5.83e-4 0.04102,0 0.01438,0.0012 0.07478,8.21e-4 0.0918,0.002 0.0025,1.68e-4 0.01108,-1.66e-4 0.01367,0 0.04166,0.0035 0.07309,0.01033 0.115234,0.01367 0.0026,2.09e-4 0.01675,-2.03e-4 0.01953,0 0.0064,4.67e-4 0.03782,-4.34e-4 0.04492,0 h 0.002 c 0.390661,0.02071 0.788731,0.03125 1.189453,0.03125 1.57,0 3.160625,-0.159365 4.390625,-0.470703 C 21.390156,26.386061 22,25.976596 22,25.576305 V 7.2872422 c 0,-0.1086536 -0.0582,-0.2149295 -0.148438,-0.3203124 0.01469,0.019923 0.0293,0.049383 0.04102,0.089844 -0.01069,-0.023613 -0.02746,-0.045575 -0.04297,-0.066406 -0.005,-0.00671 -0.0081,-0.014769 -0.01367,-0.021484 -0.0015,-0.00186 -0.0023,-0.00399 -0.0039,-0.00586 -0.0033,-0.00374 -0.0043,-0.00789 -0.0078,-0.011719 l -0.002,-0.00195 c -0.0018,-0.00192 -0.0021,-0.00391 -0.0039,-0.00586 -0.0029,-0.00309 -0.0029,-0.00662 -0.0059,-0.00977 l -0.002,-0.00195 c -0.0023,-0.00221 -0.0054,-0.00372 -0.0078,-0.00586 -0.0017,-0.0015 -0.0022,-0.00439 -0.0039,-0.00586 h -0.002 c -0.0028,-0.00167 -0.0081,-0.00422 -0.0098,-0.00586 -6.33e-4,-6.317e-4 -0.0033,-0.00132 -0.0039,-0.00195 l -0.002,-0.00195 c -0.0011,-0.00103 -0.0048,-0.00287 -0.0059,-0.00391 -0.0202,-0.018751 -0.05097,-0.039351 -0.07617,-0.058594 -0.0026,-0.002 -0.0033,-0.00386 -0.0059,-0.00586 -0.05176,-0.042462 -0.135556,-0.08366 -0.201171,-0.125 -0.01893,-0.011927 -0.03848,-0.02334 -0.05859,-0.035156 -0.0019,-8.702e-4 -0.0041,-0.00102 -0.0059,-0.00195 -0.01086,-0.0057 -0.02202,-0.011871 -0.0332,-0.017578 -0.03743,-0.021356 -0.08663,-0.041487 -0.126953,-0.0625 -0.0033,-0.00123 -0.0066,-0.00253 -0.0098,-0.00391 l -0.002,-0.00195 c -0.0013,-6.474e-4 -0.0026,-0.00131 -0.0039,-0.00195 -0.0047,-0.00219 -0.01089,-0.00367 -0.01563,-0.00586 -0.0012,-5.698e-4 -0.0027,-0.00138 -0.0039,-0.00195 -0.01936,-0.00898 -0.03283,-0.018425 -0.05273,-0.027344 -0.227246,-0.1105841 -0.487122,-0.2175056 -0.84961,-0.3105469 -0.01393,-0.00357 -0.03087,-0.00624 -0.04492,-0.00977 l -0.330078,-0.099609 v -0.021484 l -0.0039,-0.9160156 -0.002,-0.6875 a 4.0332966,0.95135391 0 0 0 0.04883,-0.1425781 4.0332966,0.95135391 0 0 0 -0.04883,-0.1464844 v -0.00586 l -0.0078,-0.00586 v -0.011719 h -0.0078 v -0.00391 -0.00195 -0.00391 -0.00195 l -0.02344,-0.013672 -0.002,-0.00391 a 4.0332966,0.95135391 0 0 0 -3.943359,-0.7519532 4.0332966,0.95135391 0 0 0 -0.195313,0 z m 5.722657,3.2988282 c 0.01355,0.00748 0.02837,0.014217 0.04297,0.021484 -0.02624,-0.015141 -0.04981,-0.029663 -0.07813,-0.044922 0.01394,0.00754 0.0218,0.015901 0.03516,0.023438 z M 10.041016,25.816539 v 0.04102 l 0.02539,0.03516 c -0.01286,-0.02519 -0.01764,-0.05088 -0.02539,-0.07617 z M 20.525391,6.314586 c 0.122271,0.03824 0.236443,0.080277 0.353515,0.125 -0.01513,-0.00544 -0.03345,-0.010246 -0.04883,-0.015625 -0.04355,-0.015216 -0.09266,-0.029866 -0.138672,-0.044922 -0.0018,-5.942e-4 -0.004,-0.00136 -0.0059,-0.00195 -0.05554,-0.019429 -0.104608,-0.044906 -0.160156,-0.0625 z m 0.453125,0.1621094 c 0.01505,0.00606 0.03007,0.01341 0.04492,0.019531 -0.006,-0.00239 -0.01347,-0.00348 -0.01953,-0.00586 -0.0013,-5.015e-4 -0.0026,-0.00145 -0.0039,-0.00195 -0.0083,-0.00319 -0.0131,-0.00855 -0.02148,-0.011719 z m 0.08203,0.033203 c 0.02839,0.011931 0.06037,0.023041 0.08789,0.035156 -0.01174,-0.0051 -0.02715,-0.0086 -0.03906,-0.013672 -0.01726,-0.00722 -0.03121,-0.014351 -0.04883,-0.021484 z m 0.513672,0.2519531 c 0.0042,0.00328 0.0085,0.00657 0.01367,0.00977 0.0018,0.00108 0.0041,0.00283 0.0059,0.00391 0.0077,0.0047 0.01994,0.00901 0.02734,0.013672 -0.01383,-0.00904 -0.0319,-0.01826 -0.04687,-0.027344 z m 0.335937,0.3242188 c 0.0015,0.00439 0.0045,0.011007 0.0059,0.015625 0.0055,0.015166 0.01132,0.042643 0.01563,0.060547 0.004,0.012023 0.01699,0.024185 0.01953,0.035156 5.1e-5,2.183e-4 -5.1e-5,0.017328 0,0.017578 -0.0022,-0.010883 -0.01254,-0.020056 -0.01563,-0.03125 -0.0012,-0.00554 -0.0026,-0.016238 -0.0039,-0.021484 -0.0016,-0.00471 -0.006,-0.00885 -0.0078,-0.013672 -0.0011,-0.00574 -0.0027,-0.014193 -0.0039,-0.019531 -3.89e-4,-0.00168 -0.0016,-0.00226 -0.002,-0.00391 -0.0014,-0.00548 -3.99e-4,-0.018279 -0.002,-0.023437 -6.11e-4,-0.00169 -0.0033,-0.00224 -0.0039,-0.00391 -9.08e-4,-0.00279 -0.001,-0.00901 -0.002,-0.011719 z M 10.099609,7.189586 c -0.0013,0.00337 -7.65e-4,0.014052 -0.002,0.017578 v 0.00195 l -0.002,0.00195 c -0.0023,0.00472 -0.0076,0.00893 -0.0098,0.013672 -0.0013,0.00276 -0.0047,0.00505 -0.0059,0.00781 l -0.002,0.00195 c 2.56e-4,-5.621e-4 -2.59e-4,-0.017078 0,-0.017578 0.0048,-0.00922 0.01609,-0.018173 0.02148,-0.027344 z m -0.02539,0.091797 c -1.18e-4,3.762e-4 -0.0018,0.00937 -0.002,0.00977 -0.0016,0.00521 -0.0065,0.010403 -0.0078,0.015625 -0.0019,0.0065 -0.0042,0.012961 -0.0059,0.019531 -7e-5,3.228e-4 7e-5,0.03084 0,0.03125 -2.44e-4,0.00141 -0.0017,0.00249 -0.002,0.00391 -8.8e-5,5.338e-4 8.7e-5,0.042242 0,0.042969 -2.02e-4,0.00161 1.99e-4,0.1007939 0,0.1035156 v 0.00195 c -3.93e-4,0.00513 -0.0016,0.00448 -0.002,0.00977 -0.0012,0.016222 -7.84e-4,0.5786917 -0.002,0.6347657 -4.3e-5,0.00207 4.3e-5,0.021315 0,0.023437 -0.0039,0.157622 -0.01085,0.1885605 -0.01367,0.4550782 -1.28e-4,0.013109 1.3e-4,0.093346 0,0.1074218 -0.0019,0.1937263 -0.0063,0.089569 -0.0078,0.3457032 0.0016,-0.2658252 0.0058,-0.257839 0.0078,-0.453125 0.0015,-0.1527813 1.27e-4,-1.2390751 0.002,-1.2519532 0.0027,-0.019093 0.01299,-0.036177 0.01758,-0.054687 1.7e-5,-8.1e-5 -1.8e-5,-0.00774 0,-0.00781 9.1e-4,-0.00392 0.0048,-0.0078 0.0059,-0.011719 0.0025,-0.00866 0.0068,-0.016844 0.0098,-0.025391 z m 11.878906,0.03125 c 0.0043,0.039117 0.01154,0.054996 0.01563,0.1074219 0.0055,0.070392 0.003,2.4944662 0.0059,3.5488282 0.005,1.113298 0.01223,2.104457 0.01172,4.357422 -2.03e-4,-1.600964 -0.008,-2.265782 -0.01172,-3.480469 -5.24e-4,-0.306862 7.06e-4,-0.61641 0,-0.876953 -0.0036,-0.807882 1.72e-4,-2.7052957 -0.01172,-3.0976564 -5.49e-4,-0.016825 5.67e-4,-0.2225556 0,-0.234375 -0.0023,-0.048726 -0.0057,-0.049124 -0.0078,-0.089844 -4.48e-4,-0.00879 4.42e-4,-0.011086 0,-0.019531 -3.46e-4,-0.00623 3.53e-4,-0.1383412 0,-0.1425781 -1.06e-4,-0.00123 1.07e-4,-0.039955 0,-0.041016 -3.72e-4,-0.00371 -0.0016,-0.00418 -0.002,-0.00781 -6.4e-5,-6.188e-4 6.4e-5,-0.022875 0,-0.023437 z m 0.03516,9.8554691 c -1.82e-4,4.604467 -0.0036,6.87323 -0.01953,7.736328 0.0075,-0.361495 0.0065,-2.99734 0.0078,-5.173828 9e-6,-0.01301 -8e-6,-0.01819 0,-0.03125 0.003,-1.131763 0.01053,-1.265838 0.01172,-2.53125 z m -0.04297,8.515625 -0.0039,0.07813 -0.05078,0.05664 c -5.18e-4,8.72e-4 -0.0014,0.005 -0.002,0.0059 -0.01352,0.02248 -0.04278,0.04415 -0.06055,0.06641 0.0038,-0.0045 0.0041,-0.0092 0.0078,-0.01367 v -0.002 h 0.002 l 0.05273,-0.05664 c 0.0013,-0.0022 6.71e-4,-0.01335 0.002,-0.01563 0.0043,-0.0068 0.01138,-0.01061 0.01563,-0.01758 0.003,-0.0049 0.005,-0.0281 0.0078,-0.0332 0.0024,-0.0055 0.0056,-0.01385 0.0078,-0.01953 0.001,-0.0029 9.95e-4,-0.01064 0.002,-0.01367 v -0.002 l 0.002,-0.002 c 0.0038,-0.01047 0.0146,-0.02073 0.01758,-0.03125 z m -0.626953,0.578125 c -0.05259,0.02726 -0.102427,0.05361 -0.160156,0.08008 0.05654,-0.02547 0.101371,-0.05188 0.152344,-0.07813 0.002,-0.001 0.0058,-9.27e-4 0.0078,-0.002 z m -9.894531,0.386718 c 0.02572,0.0073 0.06346,0.01231 0.08984,0.01953 0.01333,0.0036 0.02362,0.0081 0.03711,0.01172 -0.04105,-0.011 -0.08744,-0.01999 -0.126953,-0.03125 z m 0.16211,0.03906 c 0.0019,5.15e-4 0.0039,-5.14e-4 0.0059,0 l 0.002,0.002 c -0.0023,-5.98e-4 -0.0055,-0.0014 -0.0078,-0.002 z m 0.01953,0.0059 c 0.0033,8.53e-4 0.0084,-8.51e-4 0.01172,0 0.0028,7.44e-4 0.005,0.0012 0.0078,0.002 0.01139,0.003 0.02757,0.0049 0.03906,0.0078 0.0098,0.0025 0.02329,0.0053 0.0332,0.0078 -0.02739,-0.007 -0.06499,-0.01048 -0.0918,-0.01758 z m 0.130859,0.02734 c 0.0023,5.67e-4 0.0055,-5.67e-4 0.0078,0 0.01361,0.0034 0.03118,0.0064 0.04492,0.0098 -0.01778,-0.0033 -0.03592,-0.0055 -0.05273,-0.0098 z m 7.996094,0.04883 c -0.03844,0.0084 -0.07013,0.01726 -0.109375,0.02539 0.03097,-0.0064 0.05354,-0.01494 0.08398,-0.02149 0.0035,-7.51e-4 0.0063,-0.0012 0.0098,-0.002 0.0047,-9.74e-4 0.01098,-9.75e-4 0.01563,-0.002 z m -7.392578,0.08008 c 0.03005,0.0056 0.06319,0.01014 0.09375,0.01563 0.0937,0.01751 0.161514,0.0422 0.259765,0.05859 -0.131692,-0.02179 -0.230702,-0.05068 -0.353515,-0.07422 z m 6.998047,0.0059 c -0.0153,0.0028 -0.02952,0.005 -0.04492,0.0078 0.0052,-9.48e-4 0.0084,-0.003 0.01367,-0.0039 0.0096,-0.0017 0.02172,-0.0022 0.03125,-0.0039 z m -0.113282,0.01758 c -0.09254,0.01628 -0.198917,0.02591 -0.294921,0.04101 0.01064,-0.0017 0.01869,-0.0042 0.0293,-0.0059 0.0035,-5.59e-4 0.0062,-0.0014 0.0098,-0.002 0.0037,-5.92e-4 0.008,-0.0014 0.01172,-0.002 0.0081,-0.0013 0.01734,-6.54e-4 0.02539,-0.002 0.0022,-3.56e-4 0.0037,-0.0016 0.0059,-0.002 0.0014,-2.22e-4 0.0025,2.24e-4 0.0039,0 0.03678,-0.006 0.07901,-0.0095 0.115234,-0.01562 0.0289,-0.0049 0.0652,-0.0067 0.09375,-0.01172 z M 12.75,26.92982 c 0.01418,0.0023 0.03259,0.0036 0.04687,0.0059 h 0.002 l 0.002,0.002 c 0.02078,0.0033 0.03569,0.0085 0.05664,0.01172 0.0046,7.14e-4 0.01097,-7.13e-4 0.01563,0 0.0045,6.97e-4 0.0072,0.0032 0.01172,0.0039 -0.0092,-0.0014 -0.01813,-0.0025 -0.02734,-0.0039 -0.03754,-0.0058 -0.07053,-0.01361 -0.107422,-0.01953 z m 5.792969,0.03516 c -0.119604,0.01583 -0.217671,0.04084 -0.341797,0.05469 -0.02511,0.0028 -0.06216,0.0031 -0.08789,0.0059 0.152498,-0.01666 0.284212,-0.04115 0.429688,-0.06055 z m -0.798828,0.09961 c 0.0062,-5.13e-4 0.02133,5.17e-4 0.02734,0 -0.04838,0.0046 -0.08578,0.01328 -0.134765,0.01758 -0.134583,0.0118 -0.475778,0.01468 -0.712891,0.02344 0.23717,-0.0087 0.579269,-0.01563 0.69336,-0.02539 0.03774,-0.0033 0.06804,-0.01024 0.105468,-0.01367 0.0076,-6.95e-4 0.01391,-0.0013 0.02148,-0.002 z m -1.958985,0.07227 c 0.02404,-2.09e-4 0.04414,2.77e-4 0.06836,0 0.02406,-3.3e-4 0.03248,0.0023 0.05664,0.002 -0.05345,6.18e-4 -0.07195,-0.0024 -0.125,-0.002 z m 0.15625,0 c 0.0098,-1.46e-4 0.01755,1.56e-4 0.02734,0 0.0028,-4.5e-5 0.005,0.002 0.0078,0.002 -0.02173,3.62e-4 -0.0291,-3.35e-4 -0.05078,0 0.0063,-7.5e-5 0.0093,-0.0019 0.01563,-0.002 z" />
</svg>
