<?xml version="1.0" encoding="UTF-8"?>
<svg width="32px" height="32px" viewBox="0 0 32 32" version="1.1" xmlns="http://www.w3.org/2000/svg" xmlns:xlink="http://www.w3.org/1999/xlink">
    <!-- Generator: Sketch 51.3 (57544) - http://www.bohemiancoding.com/sketch -->
    <title>settingsSoftwareUpdate</title>
    <desc>Created with Sketch.</desc>
    <defs></defs>
    <g stroke="none" stroke-width="1" fill="none" fill-rule="evenodd">
        <g fill="#101010">
            <path d="M24.49,7.51075 C19.811,2.82975 12.195,2.82975 7.515,7.51075 C6.734,8.29275 6.734,9.55875 7.515,10.34075 C8.298,11.12175 9.563,11.12175 10.344,10.34075 C13.465,7.21975 18.542,7.21975 21.662,10.34075 C23.173,11.85175 24.005,13.86275 24.005,15.99975 C24.005,18.13775 23.173,20.14875 21.662,21.65875 C18.663,24.65875 13.86,24.76675 10.721,21.99975 L12,21.99975 C13.104,21.99975 14,21.10475 14,19.99975 C14,18.89575 13.104,17.99975 12,17.99975 L6,17.99975 C4.895,17.99975 4,18.89575 4,19.99975 L4,25.99975 C4,27.10475 4.895,27.99975 6,27.99975 C7.104,27.99975 8,27.10475 8,25.99975 L8,24.92575 C10.271,26.96675 13.134,27.99975 16.003,27.99975 C19.077,27.99975 22.15,26.82975 24.49,24.48875 C29.17,19.80875 29.17,12.19175 24.49,7.51075"></path>
        </g>
    </g>
</svg>