<?xml version="1.0" encoding="UTF-8"?>
<svg width="32px" height="32px" viewBox="0 0 32 32" version="1.1" xmlns="http://www.w3.org/2000/svg" xmlns:xlink="http://www.w3.org/1999/xlink">
    <!-- Generator: Sketch 51.3 (57544) - http://www.bohemiancoding.com/sketch -->
    <title>tabbarSettings</title>
    <desc>Created with Sketch.</desc>
    <defs></defs>
    <g stroke="none" stroke-width="1" fill="none" fill-rule="evenodd">
        <g fill="#101010">
            <path d="M16,21 C13.243,21 11,18.757 11,16 C11,13.243 13.243,11 16,11 C18.757,11 21,13.243 21,16 C21,18.757 18.757,21 16,21 Z M16,13 C14.343,13 13,14.343 13,16 C13,17.657 14.343,19 16,19 C17.657,19 19,17.657 19,16 C19,14.343 17.657,13 16,13 Z M27.235,14.471 L24.796,14.102 C24.564,13.025 24.138,12.022 23.559,11.126 L25.026,9.137 C25.324,8.838 25.324,8.354 25.026,8.055 L23.945,6.974 C23.646,6.675 23.162,6.675 22.864,6.974 L20.874,8.441 C19.979,7.862 18.975,7.436 17.898,7.204 L17.529,4.765 C17.529,4.342 17.187,4 16.765,4 L15.235,4 C14.813,4 14.471,4.342 14.471,4.765 L14.102,7.204 C13.025,7.436 12.021,7.862 11.126,8.441 L9.137,6.974 C8.838,6.675 8.354,6.675 8.055,6.974 L6.974,8.055 C6.676,8.354 6.676,8.838 6.974,9.137 L8.441,11.126 C7.862,12.022 7.436,13.025 7.204,14.102 L4.765,14.471 C4.342,14.471 4,14.813 4,15.235 L4,16.765 C4,17.187 4.342,17.529 4.765,17.529 L7.204,17.898 C7.436,18.975 7.862,19.979 8.441,20.874 L6.974,22.863 C6.676,23.162 6.676,23.646 6.974,23.945 L8.055,25.026 C8.354,25.324 8.838,25.324 9.137,25.026 L11.126,23.559 C12.021,24.138 13.025,24.564 14.104,24.796 L14.471,27.235 C14.471,27.658 14.813,28 15.235,28 L16.765,28 C17.187,28 17.529,27.658 17.529,27.235 L17.898,24.796 C18.975,24.564 19.979,24.138 20.874,23.559 L22.864,25.026 C23.162,25.324 23.646,25.324 23.945,25.026 L25.026,23.945 C25.324,23.646 25.324,23.162 25.026,22.863 L23.559,20.874 C24.138,19.979 24.564,18.975 24.796,17.898 L27.235,17.529 C27.658,17.529 28,17.187 28,16.765 L28,15.235 C28,14.813 27.658,14.471 27.235,14.471"></path>
        </g>
    </g>
</svg>